<svg xmlns="http://www.w3.org/2000/svg"
     width="84" height="84"
     viewBox="0 0 84 84">
  <path 
        fill="#A64942"
        d="M 37.90,22.31
           C 37.90,22.31 34.12,22.82 34.12,22.82
             34.12,22.82 32.98,22.94 32.98,22.94
             32.98,22.94 31.83,22.82 31.83,22.82
             27.91,22.53 24.71,21.08 22.46,17.72
             20.62,14.97 19.90,11.61 19.67,8.37
             19.67,8.37 19.52,6.73 19.52,6.73
             19.51,5.53 19.17,2.80 20.35,2.16
             20.77,1.93 21.35,1.97 21.82,1.97
             21.82,1.97 24.94,1.97 24.94,1.97
             24.94,1.97 27.89,2.27 27.89,2.27
             32.72,2.85 39.09,4.74 41.11,9.68
             41.70,11.13 41.85,12.40 41.84,13.95
             41.82,14.97 41.49,16.91 41.17,17.88
             40.96,18.51 40.29,19.93 40.35,20.51
             40.35,20.51 41.71,23.46 41.71,23.46
             41.71,23.46 43.41,28.22 43.41,28.22
             44.05,30.43 44.60,32.82 44.91,35.11
             44.91,35.11 45.61,40.52 45.61,40.52
             45.74,39.85 46.16,39.05 46.15,38.55
             46.15,38.55 45.69,36.75 45.69,36.75
             45.52,35.98 45.29,34.41 45.28,33.63
             45.26,32.08 45.22,30.90 45.59,29.37
             46.57,25.38 49.20,22.88 52.99,21.50
             56.04,20.39 59.30,20.31 62.51,20.34
             63.86,20.36 64.61,20.66 64.64,22.15
             64.64,22.15 64.64,24.94 64.64,24.94
             64.64,24.94 64.19,29.04 64.19,29.04
             63.33,34.31 61.16,39.71 55.29,40.74
             54.34,40.92 53.45,40.87 52.50,40.74
             51.21,40.55 50.26,40.40 49.05,39.87
             47.06,44.57 45.79,48.51 45.43,53.65
             45.43,53.65 45.28,55.62 45.28,55.62
             45.28,55.62 56.11,55.62 56.11,55.62
             58.18,55.63 60.18,56.52 61.20,58.41
             61.20,58.41 70.01,48.23 70.01,48.23
             72.42,45.42 74.00,43.10 77.60,41.74
             78.72,41.32 80.01,41.03 81.21,41.02
             81.77,41.01 82.86,40.95 83.33,41.21
             84.06,41.61 84.08,42.43 83.90,43.15
             83.90,43.15 82.01,47.58 82.01,47.58
             82.01,47.58 76.01,61.20 76.01,61.20
             76.01,61.20 73.46,66.94 73.46,66.94
             71.49,70.77 68.25,73.65 64.31,75.33
             64.31,75.33 60.38,76.52 60.38,76.52
             60.38,76.52 58.24,77.34 58.24,77.34
             55.00,78.64 49.27,81.16 46.10,81.79
             43.88,82.24 42.59,82.22 40.36,82.19
             36.48,82.15 32.37,80.17 28.88,78.66
             22.07,75.71 16.89,73.08 9.52,71.60
             9.52,71.60 3.12,70.76 3.12,70.76
             2.42,70.67 1.09,70.69 0.53,70.26
             -0.07,69.81 0.00,69.08 0.02,68.41
             0.02,68.41 0.02,56.44 0.02,56.44
             0.00,56.11 -0.01,55.60 0.02,55.29
             0.31,54.40 1.76,53.00 2.46,52.38
             4.79,50.33 7.20,48.64 10.17,47.64
             11.79,47.09 14.04,46.65 15.75,46.65
             20.50,46.65 26.46,48.79 30.68,50.90
             34.47,52.80 37.90,55.45 42.33,55.45
             42.33,55.45 42.65,51.52 42.65,51.52
             42.65,51.52 42.65,49.71 42.65,49.71
             42.65,49.71 42.82,47.25 42.82,47.25
             42.82,47.25 42.66,44.62 42.66,44.62
             42.65,41.10 42.36,37.60 41.74,34.12
             41.22,31.25 40.50,28.66 39.47,25.92
             39.47,25.92 37.90,22.31 37.90,22.31 Z
           M 38.06,17.39
           C 38.83,16.32 38.88,14.72 38.88,13.45
             38.88,11.22 38.07,9.52 36.26,8.16
             33.05,5.77 28.65,5.17 24.77,4.91
             24.77,4.91 22.48,4.76 22.48,4.76
             22.48,4.76 22.48,7.05 22.48,7.05
             22.48,12.10 24.37,17.96 29.70,19.56
             30.92,19.93 32.20,20.03 33.47,20.02
             34.33,20.00 35.25,19.84 36.09,19.69
             35.36,18.07 32.54,15.63 31.01,14.67
             30.25,14.20 28.30,13.37 28.01,12.63
             27.65,11.71 28.41,10.73 29.37,10.75
             29.84,10.76 30.58,11.14 31.01,11.37
             33.82,12.88 36.14,14.84 38.06,17.39 Z
           M 61.85,23.30
           C 61.85,23.30 59.23,23.30 59.23,23.30
             55.39,23.30 50.48,24.88 48.91,28.71
             48.48,29.75 48.04,31.87 48.12,32.98
             48.12,32.98 48.23,34.95 48.23,34.95
             49.00,34.29 49.46,33.42 50.09,32.65
             51.30,31.16 52.89,29.48 54.47,28.39
             55.25,27.85 56.23,27.35 56.99,28.26
             57.20,28.51 57.36,28.87 57.32,29.20
             57.22,30.04 55.59,31.09 54.96,31.68
             53.44,33.10 51.39,35.34 50.53,37.24
             51.32,37.58 52.30,37.82 53.16,37.88
             54.11,37.95 55.39,37.87 56.27,37.48
             59.96,35.88 61.42,29.76 61.67,26.09
             61.67,26.09 61.85,23.30 61.85,23.30 Z
           M 80.39,43.97
           C 80.39,43.97 80.23,43.97 80.23,43.97
             80.23,43.97 80.39,44.13 80.39,44.13
             80.39,44.13 80.39,43.97 80.39,43.97 Z
           M 80.23,44.13
           C 76.99,44.41 75.46,46.51 73.49,48.73
             73.49,48.73 66.24,57.09 66.24,57.09
             66.24,57.09 62.55,61.36 62.55,61.36
             61.94,62.23 62.37,62.77 61.71,64.31
             60.64,66.77 58.40,68.08 55.78,68.09
             55.78,68.09 38.39,68.09 38.39,68.09
             37.11,68.10 34.55,68.37 33.30,68.65
             32.85,68.75 31.44,69.22 31.08,69.04
             30.55,68.77 30.11,67.02 30.02,66.45
             30.02,66.45 32.16,65.94 32.16,65.94
             33.48,65.61 35.56,65.30 36.91,65.30
             36.91,65.30 54.96,65.30 54.96,65.30
             56.13,65.30 57.27,65.19 58.19,64.36
             59.94,62.80 59.61,60.05 57.58,58.89
             56.80,58.44 55.85,58.41 54.96,58.41
             54.96,58.41 42.00,58.41 42.00,58.41
             39.49,58.38 36.48,57.41 34.29,56.22
             34.29,56.22 31.01,54.35 31.01,54.35
             26.95,52.25 20.84,49.64 16.24,49.55
             14.65,49.52 12.14,50.04 10.66,50.63
             8.45,51.52 6.14,52.97 4.43,54.64
             3.39,55.65 2.80,55.93 2.79,57.42
             2.79,57.42 2.79,66.45 2.79,66.45
             2.79,66.76 2.75,67.38 2.95,67.64
             3.22,67.96 3.88,67.91 4.27,67.95
             4.27,67.95 7.71,68.39 7.71,68.39
             13.61,69.21 18.70,70.94 24.12,73.39
             24.12,73.39 30.52,76.17 30.52,76.17
             35.25,78.21 38.30,79.73 43.64,79.21
             47.58,78.84 53.87,75.94 57.75,74.39
             61.70,72.81 64.45,72.95 67.92,69.56
             70.40,67.13 71.25,64.76 72.59,61.69
             72.59,61.69 74.39,57.59 74.39,57.59
             74.39,57.59 78.14,49.05 78.14,49.05
             78.14,49.05 80.23,44.13 80.23,44.13 Z" />
             <path 
        fill="#cacaca"
        d="M 17.40,59.55
           C 17.40,59.55 17.40,62.67 17.40,62.67
             17.40,62.67 17.40,63.80 17.40,63.80
             17.32,64.38 16.71,64.67 16.24,64.92
             15.06,65.54 13.63,65.74 12.30,65.60
             9.33,65.28 7.06,62.73 7.23,59.72
             7.43,56.33 9.64,54.39 12.96,54.26
             14.16,54.22 15.37,54.41 16.41,55.04
             16.71,55.23 17.24,55.59 17.34,55.95
             17.50,56.57 16.66,57.24 16.08,57.07
             15.53,56.91 14.98,56.13 13.45,56.00
             11.14,55.80 9.09,57.92 9.19,60.21
             9.29,62.40 11.36,63.90 13.45,63.81
             14.00,63.79 14.80,63.63 15.21,63.25
             15.81,62.68 15.59,60.41 15.59,59.55
             15.59,59.55 17.40,59.55 17.40,59.55 Z
           M 19.20,62.51
           C 20.15,62.78 20.52,63.31 21.49,63.61
             22.25,63.90 23.72,63.96 24.44,63.61
             25.08,63.24 25.55,62.54 25.01,61.88
             23.74,60.31 19.76,61.19 19.02,58.24
             18.93,57.90 18.89,57.62 18.92,57.26
             19.22,54.22 22.72,53.85 25.10,54.49
             25.86,54.70 26.23,54.93 26.91,55.29
             26.91,55.29 26.25,56.93 26.25,56.93
             24.83,56.48 23.81,55.55 22.15,56.13
             21.36,56.40 20.47,57.14 21.12,58.02
             21.55,58.61 22.46,58.83 23.13,59.00
             24.74,59.41 26.76,59.77 27.17,61.69
             27.23,62.07 27.24,62.45 27.17,62.84
             27.11,63.32 26.97,63.75 26.67,64.15
             25.39,65.84 22.53,65.92 20.67,65.28
             20.11,65.09 18.95,64.58 18.77,63.98
             18.65,63.57 19.03,62.90 19.20,62.51 Z" />
</svg>
